<svg xmlns="http://www.w3.org/2000/svg" width="512" height="105" viewBox="0 0 512 105" version="1.1"><path d="" stroke="none" fill="#080404" fill-rule="evenodd"/><path d="M 315 3.500 C 315 6.333, 314.619 7, 313 7 C 311.837 7, 311 7.667, 311 8.594 C 311 9.470, 311.900 10.423, 313 10.710 C 314.100 10.998, 315 11.856, 315 12.617 C 315 13.377, 314.100 14, 313 14 C 311.667 14, 311 14.667, 311 16 C 311 17.333, 311.667 18, 313 18 C 314.843 18, 315 18.667, 315 26.500 C 315 33.389, 314.716 35, 313.500 35 C 312.500 35, 312 34, 312 32 C 312 29.111, 311.833 29, 307.500 29 L 303 29 303 21 C 303 14.556, 302.708 13, 301.500 13 C 300.292 13, 300 14.556, 300 21 C 300 25.667, 299.583 29, 299 29 C 298.417 29, 298 25.667, 298 21 C 298 16.333, 297.583 13, 297 13 C 296.417 13, 296 16.333, 296 21 L 296 29 292.500 29 C 289.278 29, 289 29.238, 289 32 C 289 34.833, 288.778 35, 285 35 C 281.222 35, 281 35.167, 281 38 C 281 40, 281.500 41, 282.500 41 C 283.433 41, 284 41.944, 284 43.500 C 284 45.056, 283.433 46, 282.500 46 C 281.500 46, 281 47, 281 49 C 281 51, 281.500 52, 282.500 52 C 283.333 52, 284 52.889, 284 54 C 284 55.111, 283.333 56, 282.500 56 C 281.500 56, 281 57, 281 59 C 281 61, 281.500 62, 282.500 62 C 283.633 62, 284 63.222, 284 67 L 284 72 269.500 72 L 255 72 255 75 L 255 78 299.338 78 C 323.724 78, 355.224 77.703, 369.338 77.340 L 395 76.679 395 74.340 C 395 72.036, 394.839 72, 384.546 72 L 374.091 72 373.796 65.336 C 373.501 58.699, 373.486 58.666, 370 57.499 L 366.500 56.328 365.948 45.414 L 365.395 34.500 365.198 44.750 C 364.937 58.270, 363 58.491, 363 45 C 363 39, 362.600 35, 362 35 C 361.403 35, 361 38.856, 361 44.567 C 361 53.680, 360.905 54.105, 359 53.500 C 357.095 52.895, 357 53.320, 357 62.433 L 357 72 349 72 L 341 72 341 67 C 341 63.222, 341.367 62, 342.500 62 C 343.500 62, 344 61, 344 59 C 344 57, 343.500 56, 342.500 56 C 341.667 56, 341 55.111, 341 54 C 341 52.889, 341.667 52, 342.500 52 C 343.500 52, 344 51, 344 49 C 344 47, 343.500 46, 342.500 46 C 341.659 46, 341 45.108, 341 43.969 C 341 42.851, 341.675 41.678, 342.500 41.362 C 343.355 41.034, 344 39.542, 344 37.893 L 344 35 331.500 35 L 319 35 319 26.617 C 319 19.074, 319.201 18.181, 321 17.710 C 322.100 17.423, 323 16.470, 323 15.594 C 323 14.667, 322.163 14, 321 14 C 319.900 14, 319 13.377, 319 12.617 C 319 11.856, 319.900 10.998, 321 10.710 C 322.100 10.423, 323 9.470, 323 8.594 C 323 7.667, 322.163 7, 321 7 C 319.381 7, 319 6.333, 319 3.500 C 319 0.667, 318.619 0, 317 0 C 315.381 0, 315 0.667, 315 3.500 M 292 49.500 L 292 54 296.500 54 L 301 54 301 49.500 L 301 45 296.500 45 L 292 45 292 49.500 M 305 49.500 L 305 54 313 54 L 321 54 321 49.500 L 321 45 313 45 L 305 45 305 49.500 M 324 49.500 L 324 54 329 54 L 334 54 334 49.500 L 334 45 329 45 L 324 45 324 49.500 M 473 65.941 C 473 70.647, 473.416 74, 474 74 C 474.577 74, 475 70.853, 475 66.559 C 475 62.466, 474.550 58.840, 474 58.500 C 473.365 58.108, 473 60.823, 473 65.941 M 50.651 67.756 C 49.463 69.678, 51.353 74.051, 53.619 74.619 C 54.928 74.948, 56 75.618, 56 76.108 C 56 76.599, 56.675 77, 57.500 77 C 58.325 77, 59.001 76.662, 59.003 76.250 C 59.005 75.838, 61.930 75.430, 65.503 75.344 C 69.076 75.258, 72 75.595, 72 76.094 C 72 76.592, 72.723 77, 73.607 77 C 74.625 77, 75.003 76.450, 74.638 75.500 C 74.265 74.528, 74.667 73.995, 75.781 73.985 C 76.727 73.976, 78.099 73.590, 78.830 73.126 C 81.368 71.517, 71.087 69.036, 66 70.030 C 60.719 71.062, 55.546 70.362, 53.913 68.395 C 52.631 66.850, 51.364 66.602, 50.651 67.756 M 81.543 67.931 C 81.226 68.443, 81.382 69.118, 81.890 69.432 C 82.397 69.745, 82.582 70.881, 82.301 71.956 C 81.907 73.464, 82.441 74.069, 84.645 74.609 C 86.215 74.993, 87.838 75.801, 88.250 76.404 C 88.742 77.123, 89.258 77.156, 89.750 76.500 C 90.693 75.243, 104 74.864, 104 76.094 C 104 76.592, 104.450 77, 105 77 C 105.550 77, 106 76.325, 106 75.500 C 106 74.675, 106.787 73.993, 107.750 73.985 C 108.713 73.976, 110.120 73.577, 110.877 73.097 C 113.354 71.528, 102.927 69.173, 97.360 70.044 C 91.691 70.931, 87.514 70.324, 85.900 68.379 C 84.585 66.795, 82.385 66.568, 81.543 67.931 M 113.839 67.494 C 113.567 67.766, 113.544 69.346, 113.787 71.004 C 114.103 73.155, 114.913 74.191, 116.615 74.618 C 117.927 74.947, 119 75.618, 119 76.108 C 119 76.599, 119.675 77, 120.500 77 C 121.325 77, 122.001 76.662, 122.003 76.250 C 122.005 75.838, 124.930 75.430, 128.503 75.344 C 132.076 75.258, 135 75.595, 135 76.094 C 135 76.592, 135.723 77, 136.607 77 C 137.625 77, 138.003 76.450, 137.638 75.500 C 137.225 74.422, 137.741 74, 139.472 74 C 143.656 74, 143.149 72.286, 138.513 70.760 C 135.299 69.702, 132.617 69.517, 128.927 70.101 C 122.944 71.046, 118.349 70.352, 117.595 68.388 C 117.077 67.036, 114.831 66.502, 113.839 67.494 M 145.651 67.756 C 144.463 69.678, 146.353 74.051, 148.619 74.619 C 149.928 74.948, 151 75.618, 151 76.108 C 151 76.599, 151.675 77, 152.500 77 C 153.325 77, 154.001 76.662, 154.003 76.250 C 154.005 75.838, 156.930 75.430, 160.503 75.344 C 164.076 75.258, 167 75.595, 167 76.094 C 167 76.592, 167.450 77, 168 77 C 168.550 77, 169 76.325, 169 75.500 C 169 74.675, 169.787 73.993, 170.750 73.985 C 171.713 73.976, 173.099 73.590, 173.830 73.126 C 176.385 71.506, 166.093 69.088, 160.500 69.994 C 154.721 70.930, 150.533 70.347, 148.900 68.379 C 147.630 66.849, 146.362 66.605, 145.651 67.756 M 176.839 67.494 C 176.567 67.766, 176.544 69.346, 176.787 71.004 C 177.118 73.257, 177.896 74.183, 179.865 74.664 C 181.314 75.018, 182.838 75.801, 183.250 76.404 C 183.742 77.123, 184.258 77.156, 184.750 76.500 C 185.684 75.254, 198 74.893, 198 76.111 C 198 76.600, 198.675 77, 199.500 77 C 200.325 77, 201 76.356, 201 75.570 C 201 74.783, 201.918 73.995, 203.040 73.820 C 204.161 73.644, 205.006 73.050, 204.916 72.500 C 204.615 70.657, 197.433 69.250, 192.369 70.043 C 186.692 70.930, 182.514 70.325, 180.900 68.379 C 179.754 66.998, 177.768 66.566, 176.839 67.494 M 208.651 67.756 C 207.463 69.678, 209.353 74.051, 211.619 74.619 C 212.928 74.948, 214 75.618, 214 76.108 C 214 76.599, 214.675 77, 215.500 77 C 216.325 77, 217.001 76.662, 217.003 76.250 C 217.005 75.838, 219.930 75.430, 223.503 75.344 C 227.076 75.258, 230 75.595, 230 76.094 C 230 76.592, 230.723 77, 231.607 77 C 232.625 77, 233.003 76.450, 232.638 75.500 C 232.265 74.528, 232.667 73.995, 233.781 73.985 C 234.727 73.976, 236.099 73.590, 236.830 73.126 C 239.368 71.517, 229.087 69.036, 224 70.030 C 218.640 71.078, 213.047 70.285, 212.313 68.374 C 211.748 66.902, 209.421 66.509, 208.651 67.756 M 376 68 C 376 68.550, 377.350 69, 379 69 C 380.650 69, 382 68.550, 382 68 C 382 67.450, 380.650 67, 379 67 C 377.350 67, 376 67.450, 376 68 M 423.500 77.062 C 378.452 78.392, 333.347 78.854, 242.500 78.918 C 111.095 79.009, 0 79.949, -0 80.970 C -0 81.323, 2.362 85.187, 5.250 89.556 C 13.519 102.068, 11.919 101.646, 56.500 103.085 C 96.284 104.369, 470.633 105.638, 479.653 104.519 C 484.148 103.962, 484.963 103.504, 486.027 100.935 C 487.712 96.866, 492.869 92.585, 498.645 90.458 C 504.625 88.257, 509.655 84.664, 510.504 81.986 C 510.862 80.860, 511.628 80.270, 512.242 80.650 C 512.957 81.092, 513.106 80.720, 512.670 79.582 C 512.301 78.622, 512 77.198, 512 76.418 C 512 74.625, 504.088 74.683, 423.500 77.062" stroke="none" fill="#040404" fill-rule="evenodd"/></svg>