<svg xmlns="http://www.w3.org/2000/svg" width="455" height="165" viewBox="0 0 455 165" version="1.1"><path d="" stroke="none" fill="#080404" fill-rule="evenodd"/><path d="M 183 3 L 183 6 171.500 6 C 165.175 6, 160 6.145, 160 6.322 C 160 6.499, 160.717 8.749, 161.594 11.322 L 163.188 16 172.161 16 C 181.001 16, 181.125 16.033, 180.456 18.250 C 178.277 25.478, 163.823 47.206, 155.179 56.250 C 151.779 59.807, 151.270 60, 145.297 60 C 141.834 60, 139 60.151, 139 60.336 C 139 60.520, 135.416 75.461, 131.036 93.538 C 126.656 111.615, 123.169 126.489, 123.286 126.592 C 123.404 126.694, 165.688 126.537, 217.250 126.241 L 311 125.704 311 120.352 L 311 115 287.608 115 L 264.217 115 263.589 112.500 L 262.962 110 238.981 110 C 223.660 110, 215 109.639, 215 109 C 215 108.362, 223.500 108, 238.500 108 C 264.207 108, 262.993 108.305, 261.370 102.250 L 260.767 100 234.883 100 C 218.294 100, 209 99.641, 209 99 C 209 98.359, 218.167 98, 234.500 98 C 248.525 98, 259.991 97.662, 259.981 97.250 C 259.970 96.838, 259.379 94.250, 258.668 91.500 L 257.374 86.500 247.768 86.215 L 238.163 85.930 236.047 76.715 C 231.902 58.666, 232.628 60, 226.961 60 L 222 60 222 55.500 C 222 51.024, 221.981 51, 218.500 51 L 215 51 215 41 L 215 31 212.500 31 L 210 31 210 41 L 210 51 207.500 51 L 205 51 205 41 L 205 31 202.500 31 L 200 31 200 41 L 200 51 196.500 51 C 193.019 51, 193 51.024, 193 55.500 C 193 59.333, 192.704 60, 191 60 C 189.061 60, 189 59.333, 189 38 L 189 16 198.906 16 L 208.812 16 210.406 11.322 C 211.283 8.749, 212 6.499, 212 6.322 C 212 6.145, 206.825 6, 200.500 6 L 189 6 189 3 C 189 0.333, 188.667 0, 186 0 C 183.333 0, 183 0.333, 183 3 M 50 66.500 L 50 110 38.500 110 L 27 110 27 118.500 L 27 127 68 127 L 109 127 109 118.500 L 109 110 89.500 110 L 70 110 70 66.500 L 70 23 67 23 L 64 23 64 66.500 L 64 110 60 110 L 56 110 56 66.500 L 56 23 53 23 L 50 23 50 66.500 M 176.848 32.770 C 173.739 38.122, 168.017 46.438, 164.132 51.250 L 157.068 60 162.303 60 C 167.391 60, 167.652 59.858, 171.520 54.994 C 173.709 52.240, 177.188 47.209, 179.250 43.812 C 182.679 38.166, 183 37.011, 183 30.319 C 183 26.293, 182.887 23.009, 182.750 23.020 C 182.613 23.032, 179.957 27.419, 176.848 32.770 M 179.508 50.250 C 177.991 52.587, 175.597 55.737, 174.188 57.250 L 171.626 60 177.313 60 L 183 60 183 53 C 183 49.150, 182.835 46, 182.633 46 C 182.431 46, 181.025 47.913, 179.508 50.250 M 147 76.500 L 147 80 154 80 L 161 80 161 76.500 L 161 73 154 73 L 147 73 147 76.500 M 166 76.500 L 166 80 175 80 L 184 80 184 76.500 L 184 73 175 73 L 166 73 166 76.500 M 189 76.500 L 189 80 198 80 L 207 80 207 76.500 L 207 73 198 73 L 189 73 189 76.500 M 213 76.500 L 213 80 219.500 80 L 226 80 226 76.500 L 226 73 219.500 73 L 213 73 213 76.500 M 338.104 90.500 C 337.005 94.865, 336.855 95, 333.093 95 C 329.258 95, 328 96.132, 328 99.582 C 328 100.727, 330.308 101, 340 101 C 347.333 101, 352 101.389, 352 102 C 352 102.613, 347.189 103, 339.567 103 C 328.590 103, 327.074 103.205, 326.618 104.750 C 324.838 110.782, 321.893 125.226, 322.349 125.683 C 322.835 126.168, 375.147 123.186, 375.691 122.642 C 375.811 122.522, 375.085 119.219, 374.078 115.302 L 372.246 108.180 399.123 101.469 C 424.641 95.098, 426 94.641, 426 92.438 C 426 91.162, 425.628 89.888, 425.173 89.607 C 424.719 89.326, 412.681 91.322, 398.423 94.041 C 384.166 96.761, 371.968 98.989, 371.317 98.993 C 370.667 98.997, 369.849 98.100, 369.500 97 C 369.008 95.448, 367.987 95, 364.947 95 C 361.138 95, 360.997 94.875, 359.896 90.500 L 358.763 86 349 86 L 339.237 86 338.104 90.500 M 176 99 C 176 99.550, 178.250 100, 181 100 C 183.750 100, 186 99.550, 186 99 C 186 98.450, 183.750 98, 181 98 C 178.250 98, 176 98.450, 176 99 M 193 99 C 193 99.550, 195.025 100, 197.500 100 C 199.975 100, 202 99.550, 202 99 C 202 98.450, 199.975 98, 197.500 98 C 195.025 98, 193 98.450, 193 99 M 73 104 L 73 107 88 107 L 103 107 103 104 L 103 101 88 101 L 73 101 73 104 M 398.500 124.258 L 342.500 128.069 171.553 129.065 C 77.533 129.612, 0.498 130.169, 0.364 130.302 C 0.231 130.436, 0.958 134.810, 1.979 140.022 C 3.287 146.695, 4.977 151.572, 7.689 156.500 L 11.541 163.500 41.521 164.108 C 58.009 164.442, 151.037 164.780, 248.250 164.858 L 425 165 425 162.535 C 425 158.901, 430.489 153.282, 437.413 149.826 C 440.761 148.155, 444.779 145.599, 446.343 144.144 C 449.480 141.227, 453.991 133.076, 454.015 130.283 C 454.027 128.874, 454.214 128.790, 454.908 129.885 C 455.617 131.005, 455.409 123.311, 454.667 120.973 C 454.575 120.683, 429.300 122.161, 398.500 124.258 M 431.942 129.948 C 421.948 132.981, 423.072 139.636, 433.235 137.603 C 440.319 136.186, 443.294 131.823, 438.435 129.975 C 435.548 128.877, 435.471 128.877, 431.942 129.948 M 0 154 C 0 155.345, 0.667 156, 2.035 156 C 3.760 156, 3.907 155.695, 3 154 C 2.411 152.900, 1.495 152, 0.965 152 C 0.434 152, 0 152.900, 0 154" stroke="none" fill="#040404" fill-rule="evenodd"/></svg>