<svg xmlns="http://www.w3.org/2000/svg" width="512" height="145" viewBox="0 0 512 145" version="1.1"><path d="" stroke="none" fill="#080404" fill-rule="evenodd"/><path d="M 359 14 L 359 28 356 28 L 353 28 353 18.500 C 353 9.667, 352.860 9, 351 9 C 349.140 9, 349 9.667, 349 18.500 L 349 28 343.655 28 C 336.081 28, 335.464 29.006, 333.524 44.500 C 330.976 64.861, 329.214 69.322, 322.314 72.876 C 320.712 73.701, 295 73.824, 226.064 73.336 L 132 72.670 132 85.335 C 132 95.926, 131.754 98, 130.500 98 C 129.247 98, 129 95.944, 129 85.500 L 129 73 125.500 73 L 122 73 122 85.500 C 122 95.944, 121.753 98, 120.500 98 C 119.246 98, 119 95.927, 119 85.347 L 119 72.695 107.250 73.319 C 100.788 73.663, 88.530 75.049, 80.011 76.399 C 71.491 77.750, 64.481 78.775, 64.432 78.677 C 64.384 78.580, 62.784 74, 60.878 68.500 L 57.413 58.500 48.678 58.211 C 40.027 57.924, 39.947 57.944, 40.465 60.211 C 42.323 68.357, 45 81.115, 45 81.830 C 45 82.299, 42.413 83.261, 39.250 83.968 C 36.088 84.676, 32.937 85.471, 32.250 85.734 C 31.419 86.053, 31 85.195, 31 83.174 L 31 80.135 19.750 85.485 C 13.563 88.427, 8.359 91.525, 8.186 92.370 C 8.013 93.215, 7.072 94.160, 6.094 94.470 C 5.116 94.780, 3.290 96.127, 2.036 97.462 C -0.955 100.646, -0.125 103.804, 4.480 106.759 C 6.563 108.096, 8 109.828, 8 111.001 C 8 112.523, 10.551 114.263, 18.983 118.492 C 25.024 121.521, 30.199 124, 30.483 124 C 30.768 124, 31 122.425, 31 120.500 C 31 118.575, 31.416 117, 31.924 117 C 33.772 117, 43.520 119.352, 44.259 119.976 C 44.676 120.329, 43.889 125.722, 42.509 131.960 C 41.129 138.199, 40 143.685, 40 144.151 C 40 144.618, 43.793 145, 48.428 145 L 56.856 145 58.792 139.750 C 59.857 136.863, 61.515 132.094, 62.477 129.153 C 64.171 123.973, 64.323 123.823, 67.363 124.347 C 69.088 124.645, 78.239 126.047, 87.698 127.462 L 104.896 130.036 289.698 130.268 L 474.500 130.500 483.500 127.150 C 497.398 121.977, 507.451 115.101, 510.764 108.500 C 512.392 105.256, 513.412 97.628, 512.109 98.432 C 511.499 98.810, 511 98.631, 511 98.037 C 511 95.798, 502.429 87.779, 496.480 84.452 C 490.217 80.949, 481.581 77.616, 474.750 76.064 L 471 75.213 471 93.606 C 471 111.265, 470.921 112, 469.022 112 C 467.131 112, 467.032 111.172, 466.772 93.250 L 466.500 74.500 439.304 74 L 412.107 73.500 408.591 70.090 C 404.565 66.186, 403.779 63.279, 401.581 44.169 C 399.863 29.230, 399.085 28, 391.345 28 L 386 28 386 23 C 386 18.667, 385.733 18, 384 18 C 382.267 18, 382 18.667, 382 23 L 382 28 376.500 28 L 371 28 371 14 C 371 0.667, 370.905 0, 369 0 C 367.095 0, 367 0.667, 367 14 C 367 27.333, 366.905 28, 365 28 C 363.095 28, 363 27.333, 363 14 C 363 0.667, 362.905 0, 361 0 C 359.095 0, 359 0.667, 359 14 M 360 38 C 360 38.550, 360.900 39, 362 39 C 363.100 39, 364 38.550, 364 38 C 364 37.450, 363.100 37, 362 37 C 360.900 37, 360 37.450, 360 38 M 369 38.107 C 369 38.775, 388.050 39.912, 388.917 39.296 C 390.003 38.524, 387.756 38.198, 378.750 37.818 C 373.387 37.592, 369 37.722, 369 38.107 M 345 58 L 345 61 368 61 L 391 61 391 58 L 391 55 368 55 L 345 55 345 58" stroke="none" fill="#040404" fill-rule="evenodd"/></svg>