<svg xmlns="http://www.w3.org/2000/svg" width="105" height="512" viewBox="0 0 105 512" version="1.1"><path d="" stroke="none" fill="#080404" fill-rule="evenodd"/><path d="M 15.444 5.250 C 2.932 13.519, 3.354 11.919, 1.915 56.500 C 0.631 96.284, -0.638 470.633, 0.481 479.653 C 1.038 484.148, 1.496 484.963, 4.065 486.027 C 8.126 487.709, 12.410 492.861, 14.556 498.645 C 17.772 507.312, 22.474 512, 27.950 512 C 30.522 512, 30.519 517.085, 27.996 427 C 26.446 371.633, 26.020 331.278, 26.010 239 C 25.997 112.399, 25.066 0, 24.030 -0 C 23.677 -0, 19.813 2.362, 15.444 5.250 M 33.252 50.706 C 31.903 50.965, 30.759 52.111, 30.393 53.569 C 30.058 54.906, 29.382 56, 28.892 56 C 28.401 56, 28 56.675, 28 57.500 C 28 58.325, 28.337 59.001, 28.750 59.003 C 29.163 59.005, 29.570 61.930, 29.656 65.503 C 29.742 69.076, 29.405 72, 28.906 72 C 28.408 72, 28 72.723, 28 73.607 C 28 74.625, 28.550 75.003, 29.500 74.638 C 30.472 74.265, 31.005 74.667, 31.015 75.781 C 31.055 80.232, 32.771 79.995, 34.286 75.330 C 35.482 71.650, 35.637 69.342, 34.937 65.637 C 33.921 60.258, 34.511 56.374, 36.732 53.813 C 38.098 52.239, 37.743 49.830, 36.191 50.136 C 35.811 50.211, 34.488 50.467, 33.252 50.706 M 35.568 81.890 C 35.255 82.397, 34.119 82.582, 33.044 82.301 C 31.536 81.907, 30.931 82.441, 30.391 84.645 C 30.007 86.215, 29.199 87.838, 28.596 88.250 C 27.877 88.742, 27.844 89.258, 28.500 89.750 C 29.757 90.693, 30.136 104, 28.906 104 C 28.408 104, 28 104.450, 28 105 C 28 105.550, 28.675 106, 29.500 106 C 30.325 106, 31.007 106.787, 31.015 107.750 C 31.024 108.713, 31.423 110.120, 31.903 110.877 C 33.472 113.354, 35.827 102.927, 34.956 97.360 C 34.069 91.691, 34.676 87.514, 36.621 85.900 C 37.379 85.270, 38 84.162, 38 83.437 C 38 81.751, 36.316 80.680, 35.568 81.890 M 33.752 113.780 C 31.828 114.027, 30.822 114.861, 30.394 116.566 C 30.058 117.905, 29.382 119, 28.892 119 C 28.401 119, 28 119.675, 28 120.500 C 28 121.325, 28.337 122.001, 28.750 122.003 C 29.163 122.005, 29.570 124.930, 29.656 128.503 C 29.742 132.076, 29.405 135, 28.906 135 C 28.408 135, 28 135.723, 28 136.607 C 28 137.625, 28.550 138.003, 29.500 137.638 C 30.578 137.225, 31 137.741, 31 139.472 C 31 143.656, 32.714 143.149, 34.240 138.513 C 35.298 135.299, 35.483 132.617, 34.899 128.927 C 33.954 122.944, 34.648 118.349, 36.612 117.595 C 38.077 117.033, 38.524 114.359, 37.250 113.773 C 36.837 113.584, 35.264 113.587, 33.752 113.780 M 33.252 145.706 C 31.903 145.965, 30.759 147.111, 30.393 148.569 C 30.058 149.906, 29.382 151, 28.892 151 C 28.401 151, 28 151.675, 28 152.500 C 28 153.325, 28.337 154.001, 28.750 154.003 C 29.163 154.005, 29.570 156.930, 29.656 160.503 C 29.742 164.076, 29.405 167, 28.906 167 C 28.408 167, 28 167.450, 28 168 C 28 168.550, 28.675 169, 29.500 169 C 30.325 169, 31.007 169.787, 31.015 170.750 C 31.024 171.713, 31.410 173.099, 31.874 173.830 C 33.502 176.399, 35.913 166.089, 34.991 160.500 C 34.059 154.852, 34.591 151.281, 36.732 148.813 C 38.098 147.239, 37.743 144.830, 36.191 145.136 C 35.811 145.211, 34.488 145.467, 33.252 145.706 M 33.752 176.780 C 31.740 177.038, 30.829 177.851, 30.348 179.816 C 29.987 181.292, 29.199 182.838, 28.596 183.250 C 27.877 183.742, 27.844 184.258, 28.500 184.750 C 29.746 185.684, 30.107 198, 28.889 198 C 28.400 198, 28 198.675, 28 199.500 C 28 200.325, 28.644 201, 29.430 201 C 30.217 201, 31.005 201.918, 31.180 203.040 C 31.718 206.471, 33.215 205.717, 34.499 201.369 C 35.279 198.728, 35.444 195.481, 34.957 192.369 C 34.070 186.692, 34.675 182.514, 36.621 180.900 C 38.110 179.664, 38.465 177.332, 37.250 176.773 C 36.837 176.584, 35.264 176.587, 33.752 176.780 M 33.252 208.706 C 31.903 208.965, 30.759 210.111, 30.393 211.569 C 30.058 212.906, 29.382 214, 28.892 214 C 28.401 214, 28 214.675, 28 215.500 C 28 216.325, 28.337 217.001, 28.750 217.003 C 29.163 217.005, 29.570 219.930, 29.656 223.503 C 29.742 227.076, 29.405 230, 28.906 230 C 28.408 230, 28 230.723, 28 231.607 C 28 232.625, 28.550 233.003, 29.500 232.638 C 30.472 232.265, 31.005 232.667, 31.015 233.781 C 31.055 238.232, 32.771 237.995, 34.286 233.330 C 35.482 229.650, 35.637 227.342, 34.937 223.637 C 33.894 218.118, 34.542 214.057, 36.745 212.298 C 38.210 211.129, 37.846 207.863, 36.281 208.136 C 35.852 208.211, 34.488 208.467, 33.252 208.706 M 27 299.338 C 27 323.724, 27.297 355.224, 27.660 369.338 L 28.321 395 30.660 395 C 32.964 395, 33 394.839, 33 384.546 L 33 374.091 39.664 373.796 C 46.301 373.501, 46.334 373.486, 47.501 370 L 48.672 366.500 59.586 365.948 L 70.500 365.395 60.250 365.198 C 46.730 364.937, 46.509 363, 60 363 C 66 363, 70 362.600, 70 362 C 70 361.403, 66.144 361, 60.433 361 C 51.320 361, 50.895 360.905, 51.500 359 C 52.105 357.095, 51.680 357, 42.567 357 L 33 357 33 349 L 33 341 38 341 C 41.778 341, 43 341.367, 43 342.500 C 43 343.500, 44 344, 46 344 C 48 344, 49 343.500, 49 342.500 C 49 341.667, 49.889 341, 51 341 C 52.111 341, 53 341.667, 53 342.500 C 53 343.500, 54 344, 56 344 C 58 344, 59 343.500, 59 342.500 C 59 341.659, 59.892 341, 61.031 341 C 62.149 341, 63.322 341.675, 63.638 342.500 C 63.966 343.355, 65.458 344, 67.107 344 L 70 344 70 331.500 L 70 319 78.383 319 C 85.926 319, 86.819 319.201, 87.290 321 C 87.577 322.100, 88.530 323, 89.406 323 C 90.333 323, 91 322.163, 91 321 C 91 319.900, 91.623 319, 92.383 319 C 93.144 319, 94.002 319.900, 94.290 321 C 94.577 322.100, 95.530 323, 96.406 323 C 97.333 323, 98 322.163, 98 321 C 98 319.381, 98.667 319, 101.500 319 C 104.333 319, 105 318.619, 105 317 C 105 315.381, 104.333 315, 101.500 315 C 98.667 315, 98 314.619, 98 313 C 98 311.837, 97.333 311, 96.406 311 C 95.530 311, 94.577 311.900, 94.290 313 C 94.002 314.100, 93.144 315, 92.383 315 C 91.623 315, 91 314.100, 91 313 C 91 311.667, 90.333 311, 89 311 C 87.667 311, 87 311.667, 87 313 C 87 314.843, 86.333 315, 78.500 315 C 71.611 315, 70 314.716, 70 313.500 C 70 312.500, 71 312, 73 312 C 75.889 312, 76 311.833, 76 307.500 L 76 303 84 303 C 90.444 303, 92 302.708, 92 301.500 C 92 300.292, 90.444 300, 84 300 C 79.333 300, 76 299.583, 76 299 C 76 298.417, 79.333 298, 84 298 C 88.667 298, 92 297.583, 92 297 C 92 296.417, 88.667 296, 84 296 L 76 296 76 292.500 C 76 289.278, 75.762 289, 73 289 C 70.167 289, 70 288.778, 70 285 C 70 281.222, 69.833 281, 67 281 C 65 281, 64 281.500, 64 282.500 C 64 283.433, 63.056 284, 61.500 284 C 59.944 284, 59 283.433, 59 282.500 C 59 281.500, 58 281, 56 281 C 54 281, 53 281.500, 53 282.500 C 53 283.333, 52.111 284, 51 284 C 49.889 284, 49 283.333, 49 282.500 C 49 281.500, 48 281, 46 281 C 44 281, 43 281.500, 43 282.500 C 43 283.633, 41.778 284, 38 284 L 33 284 33 269.500 L 33 255 30 255 L 27 255 27 299.338 M 51 296.500 L 51 301 55.500 301 L 60 301 60 296.500 L 60 292 55.500 292 L 51 292 51 296.500 M 51 313 L 51 321 55.500 321 L 60 321 60 313 L 60 305 55.500 305 L 51 305 51 313 M 51 329 L 51 334 55.500 334 L 60 334 60 329 L 60 324 55.500 324 L 51 324 51 329 M 36 379 C 36 380.650, 36.450 382, 37 382 C 37.550 382, 38 380.650, 38 379 C 38 377.350, 37.550 376, 37 376 C 36.450 376, 36 377.350, 36 379 M 31 474 C 31 474.577, 34.147 475, 38.441 475 C 42.534 475, 46.160 474.550, 46.500 474 C 46.892 473.365, 44.177 473, 39.059 473 C 34.353 473, 31 473.416, 31 474" stroke="none" fill="#FF6B6B" fill-rule="evenodd"/></svg>