<svg xmlns="http://www.w3.org/2000/svg" width="613" height="407"><path fill="#001f3f" fill-rule="evenodd" d="M301.7 5.25c-1.56 1.15-1.72 6.76-1.95 69.75l-.25 68.5-23.25.27-23.25.27V97.52c0-45.19-.06-46.58-2-48.52-2.43-2.43-4.3-2.54-6.13-.35-1.1 1.33-1.47 10.79-1.87 48.25l-.5 46.6-23.25.27-23.25.27V247h53.66l18.92 4.03c10.4 2.22 21.17 4.48 23.92 5.02 2.75.54 15.35 3.2 28 5.9 72.72 15.54 70.1 15.05 81.07 15.05H412V143.5h-45.5l-.5-46.79c-.53-49.7-.42-48.65-5.13-48.7-4.25-.03-4.36 1.06-4.7 49.66l-.31 46.37-23.18-.27-23.18-.27-.5-68.79c-.43-59.68-.7-68.9-2-69.73-2.02-1.28-3.3-1.22-5.3.27M10.2 145.2c-3.7 3.7-2.25 5.29 34.27 37.8l35.39 31.5-4.83 4.5c-7.92 7.39-12.37 14.99-14.48 24.75l-.7 3.25h44.07c24.24 0 44.08-.18 44.08-.4 0-.21-.9-3.32-2-6.9-6.66-21.54-27.34-34.34-49.68-30.73-6.32 1.01-7.73.98-9.15-.25-.92-.8-17.56-15.68-36.97-33.08C30.78 158.24 14.1 144 13.15 144a4.8 4.8 0 0 0-2.95 1.2M6.16 260.75c1.4 1.51 25.66 28.63 53.92 60.25 28.25 31.63 53.94 60.05 57.09 63.17 6.82 6.77 15.4 11.97 25.73 15.64l7.6 2.69h376l7-2.33c19.45-6.5 32.27-17.65 40.97-35.67 3.57-7.38 27.97-61.3 33.15-73.25l1.4-3.25H392.09l-21.29-4.46c-11.7-2.45-35.24-7.42-52.29-11.04-17.05-3.62-39.46-8.36-49.8-10.54L249.88 258H3.63l2.53 2.75m117.4 38.47c-2.06 2.94-1.97 4.37.44 6.78 1.91 1.91 3.33 2 32 2s30.09-.09 32-2c2.5-2.5 2.55-5.19.17-7.35-1.62-1.46-5.36-1.65-32.44-1.65-30.5 0-30.62 0-32.17 2.22"/></svg>