<svg xmlns="http://www.w3.org/2000/svg" width="512" height="220" viewBox="0 0 512 220" version="1.1"><path d="" stroke="none" fill="#080404" fill-rule="evenodd"/><path d="M 209 5 L 209 8 215.500 8 L 222 8 222 19.063 L 222 30.127 225.250 29.813 L 228.500 29.500 228.784 18.750 L 229.068 8 235.534 8 L 242 8 242 5 L 242 2 225.500 2 L 209 2 209 5 M 7.651 8.708 C 5.266 9.323, 5.545 10.446, 11.951 26 C 18.698 42.379, 30.295 76.977, 38.305 104.623 L 44.715 126.746 39.448 127.924 C 31.546 129.693, 18.942 136.163, 15.284 140.329 C 11.784 144.316, 10.697 148.210, 11.181 155.023 L 11.500 159.500 47.362 159.763 C 75.917 159.972, 83.126 159.768, 82.742 158.763 C 82.476 158.068, 80.116 149.517, 77.497 139.759 L 72.735 122.019 68.617 122.569 C 66.353 122.872, 61.420 123.591, 57.656 124.166 C 53.871 124.745, 50.461 124.830, 50.026 124.356 C 49.593 123.885, 46.666 114.500, 43.521 103.500 C 40.375 92.500, 34.752 74.275, 31.024 63 C 24.107 42.078, 11.050 7.907, 10.052 8.116 C 9.749 8.180, 8.668 8.446, 7.651 8.708 M 209.635 18.073 C 206.442 20.584, 206.135 24.907, 208.967 27.470 C 213.057 31.171, 220.016 28.408, 219.985 23.095 C 219.966 19.940, 219.172 18.653, 216.316 17.150 C 213.345 15.586, 212.679 15.678, 209.635 18.073 M 169.056 33.250 C 169.086 33.938, 170.549 41.700, 172.306 50.500 L 175.500 66.500 181.250 66.800 C 186.182 67.057, 187 67.377, 187 69.050 C 187 70.798, 187.726 71, 194 71 L 201 71 201.006 78.750 C 201.015 91.936, 201.300 92.431, 219.569 110.981 L 235.947 127.612 236.224 143.556 L 236.500 159.500 242.500 159.500 L 248.500 159.500 248.485 142.500 C 248.472 127.842, 248.213 125.018, 246.603 122 C 245.577 120.075, 237.596 111.257, 228.869 102.404 L 213 86.308 213 78.654 L 213 71 220 71 C 226.333 71, 227 70.810, 227 69 C 227 67.222, 227.667 67, 233 67 C 236.300 67, 239.009 66.888, 239.019 66.750 C 239.030 66.612, 240.532 58.965, 242.357 49.755 C 244.182 40.545, 245.449 32.782, 245.171 32.505 C 244.894 32.227, 227.642 32, 206.833 32 C 177.204 32, 169.012 32.271, 169.056 33.250 M 177.696 40.350 C 177.389 41.151, 177.681 42.549, 178.345 43.457 C 180.006 45.728, 183.201 44.413, 182.803 41.623 C 182.447 39.132, 178.537 38.157, 177.696 40.350 M 232.332 40.578 C 231.999 41.445, 232.463 42.892, 233.363 43.792 C 234.879 45.307, 235.121 45.307, 236.637 43.792 C 238.681 41.747, 237.743 39, 235 39 C 233.865 39, 232.665 39.710, 232.332 40.578 M 384 74 C 384 78.667, 383.833 79, 381.500 79 C 379.944 79, 379 79.567, 379 80.500 C 379 81.548, 377.944 82, 375.500 82 L 372 82 372 90.500 L 372 99 399.500 99 L 427 99 427 96.500 L 427 94 469.500 94 L 512 94 512 90.500 L 512 87 488 87 C 472.667 87, 464 86.639, 464 86 C 464 85.369, 457.167 85, 445.500 85 C 429.722 85, 427 84.779, 427 83.500 C 427 82.452, 425.944 82, 423.500 82 C 421.056 82, 420 81.548, 420 80.500 C 420 79.333, 418.667 79, 414 79 C 410.667 79, 408 79.444, 408 80 C 408 80.550, 405.750 81, 403 81 C 400.250 81, 398 80.550, 398 80 C 398 79.450, 395.975 79, 393.500 79 L 389 79 389 74 C 389 69.333, 388.833 69, 386.500 69 C 384.167 69, 384 69.333, 384 74 M 96.923 103.077 C 95.780 104.220, 95.044 105.682, 95.287 106.327 C 95.529 106.972, 98.578 119.313, 102.062 133.750 L 108.397 160 113.198 160 C 115.839 160, 118 159.544, 118 158.987 C 118 155.695, 104.447 104.194, 103.201 102.750 C 101.215 100.449, 99.459 100.541, 96.923 103.077 M 385.667 101.667 C 385.300 102.033, 385 103.833, 385 105.667 L 385 109 399.500 109 L 414 109 414 105 L 414 101 400.167 101 C 392.558 101, 386.033 101.300, 385.667 101.667 M 172.431 120.803 L 158.500 131.607 158.223 145.803 L 157.945 160 192.473 160 L 227 160 227 152.712 L 227 145.425 222.216 140.712 L 217.431 136 202.966 135.782 L 188.500 135.563 201.750 135.253 C 209.037 135.082, 215 134.595, 215 134.171 C 215 131.563, 211.945 131, 197.800 131 C 188.600 131, 183 130.622, 183 130 C 183 129.385, 188 129, 196 129 C 203.150 129, 209 128.631, 209 128.181 C 209 127.730, 205.008 123.455, 200.129 118.681 C 193.866 112.553, 190.538 110, 188.809 110 C 187.222 110, 181.460 113.801, 172.431 120.803 M 387.991 114.750 C 387.986 115.162, 386.411 125.096, 384.491 136.825 C 382.571 148.554, 381 158.566, 381 159.075 C 381 159.584, 382.116 160, 383.481 160 C 386.413 160, 386.156 160.879, 389.492 139.500 C 392.733 118.734, 392.661 119, 395.019 119 C 396.929 119, 397 119.732, 397 139.500 L 397 160 399.500 160 L 402 160 402 139.500 L 402 119 404.310 119 C 406.533 119, 406.726 119.673, 409.398 136.750 C 412.773 158.317, 412.926 159.004, 414.358 158.985 C 418.227 158.933, 418.266 157.782, 415.071 137.884 C 413.359 127.223, 411.734 117.487, 411.460 116.250 C 410.979 114.076, 410.573 114, 399.481 114 C 393.166 114, 387.996 114.338, 387.991 114.750 M 490.876 137.011 C 488.883 137.359, 484.979 139.313, 482.200 141.353 C 471.195 149.432, 450.239 156.728, 424.265 161.525 L 410.867 164 212.683 164.006 C 85.705 164.009, 13.227 164.365, 10.956 164.996 C 9.006 165.537, 5.885 167.555, 4.020 169.479 C 1.127 172.464, 0.570 173.823, 0.226 178.739 C -0.110 183.548, 0.213 185.078, 2.181 188 C 3.479 189.925, 6.106 192.287, 8.020 193.248 C 11.298 194.896, 23.088 194.997, 211.525 194.998 L 411.551 195 426.025 192.475 C 451.353 188.056, 470.435 182.328, 486.500 174.320 C 497.584 168.796, 505.315 162.964, 507.411 158.546 C 512.770 147.253, 503.246 134.848, 490.876 137.011 M 149.217 148.250 L 149.500 159.500 152.500 159.500 L 155.500 159.500 155.783 148.250 L 156.066 137 152.500 137 L 148.934 137 149.217 148.250 M 486.099 179.660 C 469.265 187.430, 448.913 193.246, 423.671 197.500 L 408.841 200 214.961 200 L 21.080 200 19.970 203.750 C 18.410 209.022, 20.420 214.700, 24.920 217.728 L 28.339 220.029 225.420 219.744 L 422.500 219.458 434.862 216.699 C 459.980 211.092, 481.863 202.330, 491.001 194.221 C 494.896 190.765, 495.342 189.889, 495.730 184.952 C 496.015 181.334, 495.711 178.952, 494.829 177.872 C 493.619 176.390, 492.838 176.550, 486.099 179.660" stroke="none" fill="#FF6B6B" fill-rule="evenodd"/></svg>