<svg xmlns="http://www.w3.org/2000/svg" width="145" height="512" viewBox="0 0 145 512" version="1.1"><path d="" stroke="none" fill="#080404" fill-rule="evenodd"/><path d="M 41.452 0.765 C 40.875 1.169, 39.382 2.962, 38.134 4.750 C 36.885 6.537, 34.998 8, 33.940 8 C 32.493 8, 30.652 10.721, 26.508 18.983 C 23.479 25.024, 21 30.199, 21 30.483 C 21 30.768, 22.575 31, 24.500 31 C 26.425 31, 28 31.416, 28 31.924 C 28 33.772, 25.648 43.520, 25.024 44.259 C 24.671 44.676, 19.278 43.889, 13.040 42.509 C 6.801 41.129, 1.315 40, 0.849 40 C 0.382 40, 0 43.793, 0 48.428 L 0 56.856 5.250 58.792 C 8.138 59.857, 12.906 61.515, 15.847 62.477 C 21.027 64.171, 21.177 64.323, 20.653 67.363 C 20.355 69.088, 18.953 78.239, 17.538 87.698 L 14.964 104.896 14.732 289.698 L 14.500 474.500 17.850 483.500 C 23.073 497.534, 29.840 507.370, 36.684 510.880 C 39.482 512.315, 44.515 512.315, 47.316 510.882 C 55.930 506.472, 65.279 490.847, 68.936 474.750 L 69.787 471 51.394 471 C 33.735 471, 33 470.921, 33 469.022 C 33 467.131, 33.828 467.032, 51.750 466.772 L 70.500 466.500 71 439.304 L 71.500 412.107 74.910 408.591 C 78.814 404.565, 81.721 403.779, 100.831 401.581 C 115.770 399.863, 117 399.085, 117 391.345 L 117 386 122 386 C 126.333 386, 127 385.733, 127 384 C 127 382.267, 126.333 382, 122 382 L 117 382 117 376.500 L 117 371 131 371 C 144.333 371, 145 370.905, 145 369 C 145 367.095, 144.333 367, 131 367 C 117.667 367, 117 366.905, 117 365 C 117 363.095, 117.667 363, 131 363 C 144.333 363, 145 362.905, 145 361 C 145 359.095, 144.333 359, 131 359 L 117 359 117 356 L 117 353 126.500 353 C 135.333 353, 136 352.860, 136 351 C 136 349.140, 135.333 349, 126.500 349 L 117 349 117 343.655 C 117 336.081, 115.994 335.464, 100.500 333.524 C 80.139 330.976, 75.678 329.214, 72.124 322.314 C 71.299 320.712, 71.176 295, 71.664 226.064 L 72.330 132 59.665 132 C 49.074 132, 47 131.754, 47 130.500 C 47 129.247, 49.056 129, 59.500 129 L 72 129 72 125.500 L 72 122 59.500 122 C 49.056 122, 47 121.753, 47 120.500 C 47 119.246, 49.073 119, 59.653 119 L 72.305 119 71.681 107.250 C 71.337 100.787, 69.951 88.530, 68.601 80.011 C 67.250 71.491, 66.225 64.481, 66.323 64.432 C 66.420 64.384, 71 62.784, 76.500 60.878 L 86.500 57.413 86.789 48.678 C 87.076 40.027, 87.056 39.947, 84.789 40.465 C 76.643 42.323, 63.885 45, 63.170 45 C 62.701 45, 61.739 42.412, 61.032 39.250 C 60.324 36.087, 59.529 32.938, 59.266 32.250 C 58.947 31.419, 59.805 31, 61.826 31 L 64.865 31 59.515 19.750 C 56.488 13.383, 53.479 8.360, 52.583 8.177 C 51.712 7.999, 51 7.471, 51 7.003 C 51 6.536, 49.835 4.769, 48.411 3.077 C 45.878 0.066, 43.551 -0.706, 41.452 0.765 M 84 368 L 84 391 87 391 L 90 391 90 368 L 90 345 87 345 L 84 345 84 368 M 106 362 C 106 363.100, 106.450 364, 107 364 C 107.550 364, 108 363.100, 108 362 C 108 360.900, 107.550 360, 107 360 C 106.450 360, 106 360.900, 106 362 M 105.800 378.750 C 105.425 388.071, 105.527 389.845, 106.385 388.917 C 107.108 388.136, 107.595 369, 106.893 369 C 106.508 369, 106.016 373.387, 105.800 378.750" stroke="none" fill="#FF6B6B" fill-rule="evenodd"/></svg>