<svg xmlns="http://www.w3.org/2000/svg" width="140" height="512" viewBox="0 0 140 512" version="1.1"><path d="" stroke="none" fill="#080404" fill-rule="evenodd"/><path d="M 25.577 4.481 C 13.923 9.241, 8.714 13.171, 7.087 18.428 C 5.887 22.307, 5.468 31.408, 2.462 119 C 0.224 184.187, 0.007 202.356, 0.004 324.789 C 0 447.738, 0.328 468.143, 2.522 481.571 C 2.965 484.283, 3.664 484.844, 8.498 486.368 C 14.919 488.392, 19.879 492.955, 24.406 501 C 26.911 505.453, 28.534 507.024, 32.929 509.250 C 35.915 510.762, 39.980 512, 41.962 512 L 45.565 512 45.252 505.250 C 45.079 501.538, 43.602 464.046, 41.969 421.936 C 39.116 348.354, 39 340.661, 38.999 224.436 C 38.998 100.928, 38.138 -0.007, 37.087 0.009 C 36.764 0.014, 31.585 2.026, 25.577 4.481 M 41 47 L 41 67 43.500 67 L 46 67 46 47 L 46 27 43.500 27 L 41 27 41 47 M 49.618 81.457 L 46.823 92.915 43.912 92.332 L 41 91.750 41 102.986 L 41 114.223 44.607 113.546 C 50.276 112.482, 53 111.177, 53 109.525 C 53 108.686, 53.675 108, 54.500 108 C 55.613 108, 56 106.830, 56 103.469 C 56 100.363, 55.528 98.756, 54.500 98.362 C 53.675 98.045, 53 96.972, 53 95.976 C 53 94.981, 52.551 94.017, 52.003 93.833 C 51.381 93.625, 51.773 89.451, 53.048 82.728 C 54.953 72.682, 54.974 70, 53.147 70 C 52.743 70, 51.155 75.156, 49.618 81.457 M 41 158.048 L 41 189.095 47.250 188.798 L 53.500 188.500 53.777 173.750 L 54.053 159 87.027 159 C 119.333 159, 120 158.960, 120 157 C 120 155.040, 119.333 155, 87 155 L 54 155 54 152.014 L 54 149.027 86.750 148.764 L 119.500 148.500 119.820 146.250 L 120.139 144 87.070 144 L 54 144 54 135.500 L 54 127 47.500 127 L 41 127 41 158.048 M 55 173.500 L 55 185 58 185 C 60.762 185, 61 184.722, 61 181.500 L 61 178 66 178 C 69.698 178, 71 177.623, 71 176.552 C 71 175.519, 69.497 174.999, 65.750 174.737 C 62.862 174.535, 65.787 174.287, 72.250 174.185 C 81.946 174.032, 84 173.738, 84 172.500 C 84 171.254, 82.056 171, 72.500 171 L 61 171 61 166.500 C 61 162.167, 60.889 162, 58 162 L 55 162 55 173.500 M 41.002 241.750 C 41.003 264.712, 41.300 296.663, 41.663 312.750 L 42.322 342 46.161 342 L 50 342 50 324 C 50 308.667, 50.222 306, 51.500 306 C 52.779 306, 53 303.278, 53 287.500 C 53 275.833, 53.369 269, 54 269 C 54.630 269, 55 275.667, 55 287 C 55 296.900, 55.337 304.994, 55.750 304.986 C 56.163 304.979, 57.513 304.701, 58.750 304.370 C 60.988 303.770, 61 303.660, 61 283.824 C 61 270.784, 61.346 264.096, 62 264.500 C 62.610 264.877, 63 272.510, 63 284.059 C 63 304.835, 62.675 303.858, 69 302.110 C 71.313 301.470, 71.537 300.869, 72 294.057 L 72.500 286.694 81.500 284.581 L 90.500 282.468 90.807 278.234 C 91.105 274.135, 91.225 274, 94.557 274 C 97.563 274, 98 273.683, 98 271.500 C 98 269.056, 98.167 269, 105.500 269 C 112.333 269, 113 268.822, 113 267 C 113 265.178, 112.333 265, 105.500 265 C 99.500 265, 98 264.700, 98 263.500 C 98 262.300, 99.500 262, 105.500 262 C 112.333 262, 113 261.822, 113 260 C 113 258.178, 112.333 258, 105.500 258 C 98.167 258, 98 257.944, 98 255.500 C 98 253.310, 97.567 253, 94.500 253 C 92.056 253, 91 252.548, 91 251.500 C 91 250.227, 93.500 250, 107.500 250 L 124 250 124 254.455 C 124 258.828, 124.068 258.920, 127.750 259.512 C 129.813 259.844, 132.512 260.323, 133.750 260.577 C 135.863 261.010, 136 260.708, 136 255.636 C 136 251.074, 136.311 250.152, 138 249.710 C 139.197 249.397, 140 248.346, 140 247.094 C 140 245.667, 139.363 245, 138 245 C 136.237 245, 136 244.333, 136 239.364 L 136 233.728 131.360 234.364 C 128.809 234.714, 126.109 235, 125.360 235 C 124.416 235, 124 236.367, 124 239.469 C 124 243.292, 123.747 243.848, 122.250 243.322 C 117.921 241.799, 104.165 232.978, 97.893 227.702 L 91 221.903 90.998 216.702 L 90.996 211.500 66.748 205.717 C 53.412 202.537, 42.163 199.949, 41.750 199.967 C 41.337 199.985, 41.001 218.787, 41.002 241.750 M 76 223 C 76 227.889, 76.067 228, 79 228 C 81.933 228, 82 227.889, 82 223 C 82 218.111, 81.933 218, 79 218 C 76.067 218, 76 218.111, 76 223 M 91.195 229.707 C 91.497 234.364, 91.584 234.471, 99.292 239.707 C 106.892 244.870, 107.257 245, 114.190 245 L 121.298 245 116.457 242.426 C 109.500 238.727, 101.935 233.575, 96.720 228.985 C 94.230 226.793, 91.900 225, 91.542 225 C 91.184 225, 91.028 227.118, 91.195 229.707 M 76 239 L 76 246 79 246 L 82 246 82 239 L 82 232 79 232 L 76 232 76 239 M 91 240.416 L 91 245 97.223 245 C 103.360 245, 103.411 244.977, 100.973 243.325 C 99.613 242.403, 96.813 240.340, 94.750 238.740 L 91 235.832 91 240.416 M 61 243.500 C 61 245.425, 61.450 247, 62 247 C 62.550 247, 63 245.425, 63 243.500 C 63 241.575, 62.550 240, 62 240 C 61.450 240, 61 241.575, 61 243.500 M 76 256.500 L 76 263 79 263 L 82 263 82 256.500 L 82 250 79 250 L 76 250 76 256.500 M 61 256.559 C 61 258.677, 61.405 259.868, 62 259.500 C 62.550 259.160, 63 257.559, 63 255.941 C 63 254.323, 62.550 253, 62 253 C 61.450 253, 61 254.602, 61 256.559 M 76 273 C 76 277.889, 76.067 278, 79 278 C 81.933 278, 82 277.889, 82 273 C 82 268.111, 81.933 268, 79 268 C 76.067 268, 76 268.111, 76 273 M 99.980 275.038 C 98.603 277.611, 99.545 280.686, 102.135 282.072 C 106.431 284.371, 111.261 277.661, 107.800 274.200 C 105.849 272.249, 101.206 272.746, 99.980 275.038 M 42.329 370.039 C 42.689 381.192, 43.159 390.492, 43.373 390.706 C 43.587 390.920, 46.178 390.478, 49.131 389.723 L 54.500 388.351 59.553 408.425 C 64.099 426.482, 64.828 428.532, 66.803 428.820 C 68.115 429.010, 69.003 428.607, 69.007 427.820 C 69.012 427.094, 67.367 417.770, 65.353 407.099 C 62.067 389.689, 61.852 387.581, 63.260 386.552 C 64.122 385.921, 64.979 384.103, 65.164 382.510 C 65.433 380.189, 66.152 379.448, 68.793 378.768 L 72.086 377.921 71.793 370.710 C 71.501 363.528, 71.488 363.496, 68.250 362.543 C 65.466 361.724, 65 361.131, 65 358.410 C 65 355.827, 64.539 355.145, 62.534 354.762 C 60.069 354.291, 60.069 354.292, 59.744 363.895 L 59.419 373.500 59.209 363.817 C 58.977 353.058, 59.644 353.963, 50.500 352 C 47.750 351.410, 44.639 350.665, 43.587 350.344 C 41.733 349.780, 41.695 350.379, 42.329 370.039 M 44 417.433 C 44 425.771, 44.292 428, 45.386 428 C 46.317 428, 47.666 431.606, 49.500 439 C 51.334 446.394, 52.683 450, 53.614 450 C 55.353 450, 55.376 450.468, 53.034 438.180 C 51.014 427.578, 51.311 424.901, 54.750 422.700 C 56.621 421.504, 56.402 413, 54.500 413 C 53.675 413, 53 412.149, 53 411.108 C 53 409.871, 52.050 408.990, 50.250 408.561 C 48.737 408.200, 46.712 407.671, 45.750 407.385 C 44.161 406.913, 44 407.837, 44 417.433 M 46.004 463.250 C 46.006 467.238, 46.301 476.238, 46.658 483.250 C 47.307 495.972, 47.314 496, 49.782 496 L 52.256 496 51.584 478.750 C 50.772 457.899, 50.466 456, 47.921 456 C 46.203 456, 46 456.765, 46.004 463.250" stroke="none" fill="#FF6B6B" fill-rule="evenodd"/></svg>