<svg xmlns="http://www.w3.org/2000/svg" width="165" height="455" viewBox="0 0 165 455" version="1.1"><path d="" stroke="none" fill="#080404" fill-rule="evenodd"/><path d="M 9 2.035 C 9 3.760, 9.305 3.907, 11 3 C 13.572 1.624, 13.572 0, 11 0 C 9.655 0, 9 0.667, 9 2.035 M 24.500 1.998 C 18.441 3.230, 13.212 5.088, 8.500 7.685 L 1.500 11.541 0.892 41.521 C 0.558 58.009, 0.220 151.037, 0.142 248.250 L 0 425 2.465 425 C 6.099 425, 11.718 430.489, 15.174 437.413 C 16.845 440.761, 19.401 444.779, 20.856 446.343 C 24.735 450.515, 32.585 454.152, 38.954 454.730 L 44.533 455.235 44.243 450.868 C 44.084 448.465, 42.324 422.200, 40.332 392.500 L 36.711 338.500 35.968 207.500 C 35.559 135.450, 35.174 59.288, 35.112 38.250 C 35.051 17.212, 34.663 0.038, 34.250 0.084 C 33.837 0.131, 29.450 0.992, 24.500 1.998 M 38 68 L 38 109 46.500 109 L 55 109 55 89.500 L 55 70 98.500 70 L 142 70 142 67 L 142 64 98.500 64 L 55 64 55 60 L 55 56 98.500 56 L 142 56 142 53 L 142 50 98.500 50 L 55 50 55 38.500 L 55 27 46.500 27 L 38 27 38 68 M 58 88 L 58 103 61 103 L 64 103 64 88 L 64 73 61 73 L 58 73 58 88 M 38.335 155.190 C 38.699 172.961, 38.997 215.287, 38.998 249.250 L 39 311 44.500 311 L 50 311 50 287.608 L 50 264.217 52.500 263.589 L 55 262.962 55 238.981 C 55 223.660, 55.361 215, 56 215 C 56.638 215, 57 223.500, 57 238.500 C 57 264.207, 56.695 262.993, 62.750 261.370 L 65 260.767 65 234.883 C 65 218.294, 65.359 209, 66 209 C 66.641 209, 67 218.167, 67 234.500 C 67 248.525, 67.338 259.991, 67.750 259.981 C 68.162 259.970, 70.750 259.379, 73.500 258.668 L 78.500 257.374 78.785 247.768 L 79.070 238.163 88.285 236.047 C 106.334 231.902, 105 232.628, 105 226.961 L 105 222 109.500 222 C 113.976 222, 114 221.981, 114 218.500 L 114 215 124 215 L 134 215 134 212.500 L 134 210 124 210 L 114 210 114 207.500 L 114 205 124 205 L 134 205 134 202.500 L 134 200 124 200 L 114 200 114 196.500 C 114 193.019, 113.976 193, 109.500 193 C 105.667 193, 105 192.704, 105 191 C 105 189.061, 105.667 189, 127 189 L 149 189 149 198.906 L 149 208.812 153.678 210.406 C 156.251 211.283, 158.501 212, 158.678 212 C 158.855 212, 159 206.825, 159 200.500 L 159 189 162 189 C 164.667 189, 165 188.667, 165 186 C 165 183.333, 164.667 183, 162 183 L 159 183 159 171.500 C 159 165.175, 158.855 160, 158.678 160 C 158.501 160, 156.251 160.717, 153.678 161.594 L 149 163.188 149 172.161 C 149 181.001, 148.967 181.125, 146.750 180.456 C 139.522 178.277, 117.794 163.823, 108.750 155.179 C 105.193 151.779, 105 151.270, 105 145.297 C 105 141.834, 104.838 139, 104.640 139 C 104.442 139, 90.379 135.635, 73.390 131.522 C 56.400 127.408, 41.414 123.781, 40.087 123.462 L 37.674 122.880 38.335 155.190 M 85 154 L 85 161 88.500 161 L 92 161 92 154 L 92 147 88.500 147 L 85 147 85 154 M 105 162.303 C 105 167.391, 105.142 167.652, 110.006 171.520 C 112.760 173.709, 117.791 177.188, 121.188 179.250 C 126.890 182.713, 127.941 182.999, 134.931 182.990 L 142.500 182.980 132.500 177.083 C 127 173.839, 118.563 168.008, 113.750 164.126 L 105 157.068 105 162.303 M 85 175 L 85 184 88.500 184 L 92 184 92 175 L 92 166 88.500 166 L 85 166 85 175 M 105 177.396 L 105 183 112 183 C 115.850 183, 119 182.812, 119 182.582 C 119 182.351, 117.337 181.135, 115.304 179.879 C 113.271 178.622, 110.121 176.289, 108.304 174.694 L 105 171.793 105 177.396 M 65 181 C 65 183.750, 65.450 186, 66 186 C 66.550 186, 67 183.750, 67 181 C 67 178.250, 66.550 176, 66 176 C 65.450 176, 65 178.250, 65 181 M 85 198 L 85 207 88.500 207 L 92 207 92 198 L 92 189 88.500 189 L 85 189 85 198 M 65 197.500 C 65 199.975, 65.450 202, 66 202 C 66.550 202, 67 199.975, 67 197.500 C 67 195.025, 66.550 193, 66 193 C 65.450 193, 65 195.025, 65 197.500 M 85 219.500 L 85 226 88.500 226 L 92 226 92 219.500 L 92 213 88.500 213 L 85 213 85 219.500 M 39 324.569 C 39 328.149, 42.118 375.451, 42.370 375.704 C 42.484 375.817, 45.781 375.085, 49.698 374.078 L 56.820 372.246 63.531 399.123 C 69.902 424.641, 70.359 426, 72.562 426 C 73.838 426, 75.112 425.628, 75.393 425.173 C 75.674 424.719, 73.678 412.681, 70.959 398.423 C 68.239 384.166, 66.011 371.968, 66.007 371.317 C 66.003 370.667, 66.900 369.849, 68 369.500 C 69.552 369.008, 70 367.987, 70 364.947 C 70 361.138, 70.125 360.997, 74.500 359.896 L 79 358.763 79 349 L 79 339.237 74.500 338.104 C 70.135 337.005, 70 336.855, 70 333.093 C 70 329.258, 68.868 328, 65.418 328 C 64.273 328, 64 330.308, 64 340 C 64 347.333, 63.611 352, 63 352 C 62.387 352, 62 347.189, 62 339.567 C 62 328.589, 61.795 327.075, 60.250 326.623 C 57.009 325.674, 40.851 322, 39.921 322 C 39.414 322, 39 323.156, 39 324.569 M 27.409 427.507 C 26.114 432.666, 29.309 441, 32.581 441 C 34.555 441, 36.156 436.497, 35.361 433.181 C 33.523 425.506, 28.764 422.110, 27.409 427.507" stroke="none" fill="#FF6B6B" fill-rule="evenodd"/></svg>