<svg xmlns="http://www.w3.org/2000/svg" width="220" height="512" viewBox="0 0 220 512" version="1.1"><path d="" stroke="none" fill="#080404" fill-rule="evenodd"/><path d="M 32 2.181 C 30.075 3.479, 27.713 6.106, 26.752 8.020 C 25.104 11.298, 25.003 23.086, 25.002 211.473 L 25 411.446 27.614 426.470 C 35.242 470.306, 51.290 506.088, 64.427 508.552 C 74.962 510.529, 83.366 503.605, 83.156 493.122 C 83.083 489.510, 82.177 487.327, 78.565 482.061 C 69.898 469.427, 63.322 450.509, 58.475 424.265 L 56 410.867 55.994 212.683 C 55.991 85.705, 55.635 13.227, 55.004 10.956 C 54.463 9.006, 52.445 5.885, 50.521 4.020 C 47.536 1.127, 46.177 0.570, 41.261 0.226 C 36.452 -0.110, 34.922 0.213, 32 2.181 M 205.788 7.059 C 197.716 11.765, 149.840 28.308, 115.377 38.300 L 93.254 44.715 92.076 39.448 C 90.307 31.546, 83.837 18.942, 79.671 15.284 C 75.684 11.784, 71.790 10.697, 64.977 11.181 L 60.500 11.500 60.237 47.362 C 60.028 75.917, 60.232 83.126, 61.237 82.742 C 61.932 82.476, 70.483 80.116, 80.241 77.497 L 97.981 72.735 97.431 68.617 C 97.128 66.353, 96.409 61.420, 95.834 57.656 C 95.255 53.871, 95.170 50.461, 95.644 50.026 C 96.115 49.593, 105.500 46.666, 116.500 43.521 C 143.568 35.781, 174.183 25.576, 194.599 17.488 C 203.894 13.805, 211.595 10.706, 211.710 10.602 C 211.826 10.498, 211.661 9.420, 211.344 8.206 C 210.730 5.861, 208.598 5.421, 205.788 7.059 M 8.035 20.306 C 6.047 20.991, 3.589 22.958, 2.270 24.920 L -0.029 28.339 0.256 225.420 L 0.542 422.500 3.301 434.862 C 8.902 459.953, 17.670 481.863, 25.756 490.976 C 29.078 494.719, 30.181 495.311, 34.629 495.738 C 37.457 496.010, 40.633 495.731, 41.796 495.109 C 43.867 494.001, 43.856 493.934, 40.421 486.396 C 32.501 469.016, 26.750 448.889, 22.500 423.671 L 20 408.841 20 215.018 L 20 21.196 16.851 20.098 C 13.045 18.771, 12.451 18.785, 8.035 20.306 M 86.750 101.813 L 60 108.402 60 113.201 C 60 115.840, 60.456 118, 61.013 118 C 64.305 118, 115.806 104.447, 117.250 103.201 C 118.213 102.370, 119 101.085, 119 100.345 C 119 98.860, 115.437 94.935, 114.250 95.112 C 113.838 95.173, 101.463 98.188, 86.750 101.813 M 60.384 150.442 C 60.080 151.234, 59.987 152.697, 60.177 153.692 C 60.483 155.288, 61.844 155.533, 71.762 155.783 L 83 156.066 83 152.533 L 83 149 71.969 149 C 63.284 149, 60.820 149.307, 60.384 150.442 M 60 192.473 L 60 227 67.288 227 L 74.575 227 79.288 222.216 L 84 217.431 84.218 202.966 L 84.437 188.500 84.747 201.750 C 84.918 209.037, 85.405 215, 85.829 215 C 88.437 215, 89 211.945, 89 197.800 C 89 188.600, 89.378 183, 90 183 C 90.615 183, 91 188, 91 196 C 91 203.150, 91.369 209, 91.819 209 C 92.270 209, 96.545 205.008, 101.319 200.129 C 107.447 193.866, 110 190.538, 110 188.809 C 110 187.222, 106.199 181.460, 99.197 172.431 L 88.393 158.500 74.197 158.223 L 60 157.945 60 192.473 M 169 172.362 L 153.500 175.500 153.200 181.250 C 152.943 186.182, 152.623 187, 150.950 187 C 149.202 187, 149 187.726, 149 194 L 149 201 141.250 201.006 C 128.064 201.015, 127.569 201.300, 109.019 219.569 L 92.388 235.947 76.444 236.224 L 60.500 236.500 60.500 242.500 L 60.500 248.500 77.500 248.485 C 92.158 248.472, 94.982 248.213, 98 246.603 C 99.925 245.577, 108.743 237.596, 117.596 228.869 L 133.692 213 141.346 213 L 149 213 149 220 C 149 226.333, 149.190 227, 151 227 C 152.778 227, 153 227.667, 153 233 C 153 236.300, 153.113 239.009, 153.250 239.019 C 153.387 239.030, 161.035 240.532, 170.245 242.357 C 179.455 244.182, 187.218 245.449, 187.495 245.171 C 187.773 244.894, 188 227.642, 188 206.833 C 188 171.426, 187.888 169.007, 186.250 169.112 C 185.287 169.173, 177.525 170.636, 169 172.362 M 176.543 178.345 C 175.499 179.108, 175.142 180.207, 175.573 181.329 C 176.523 183.807, 180.415 183.098, 180.803 180.377 C 181.169 177.808, 178.814 176.684, 176.543 178.345 M 192.574 208.918 C 188.770 213.122, 191.568 220, 197.084 220 C 202.467 220, 205.413 214.378, 202.257 210.130 C 199.730 206.730, 195.080 206.149, 192.574 208.918 M 212 215.500 L 212 222 200.937 222 L 189.873 222 190.187 225.250 L 190.500 228.500 201.250 228.784 L 212 229.068 212 235.534 L 212 242 215 242 L 218 242 218 225.500 L 218 209 215 209 L 212 209 212 215.500 M 175.994 233.507 C 174.887 234.841, 174.931 235.359, 176.258 236.687 C 178.403 238.831, 181.230 237.640, 180.820 234.765 C 180.429 232.026, 177.793 231.339, 175.994 233.507 M 121 399.500 L 121 427 123.500 427 L 126 427 126 469.500 L 126 512 129.500 512 L 133 512 133 488 C 133 472.667, 133.361 464, 134 464 C 134.631 464, 135 457.167, 135 445.500 C 135 429.722, 135.221 427, 136.500 427 C 137.548 427, 138 425.944, 138 423.500 C 138 421.056, 138.452 420, 139.500 420 C 140.667 420, 141 418.667, 141 414 C 141 410.667, 140.556 408, 140 408 C 139.450 408, 139 405.750, 139 403 C 139 400.250, 139.450 398, 140 398 C 140.550 398, 141 395.975, 141 393.500 L 141 389 146 389 C 150.667 389, 151 388.833, 151 386.500 C 151 384.167, 150.667 384, 146 384 C 141.333 384, 141 383.833, 141 381.500 C 141 379.944, 140.433 379, 139.500 379 C 138.452 379, 138 377.944, 138 375.500 L 138 372 129.500 372 L 121 372 121 399.500 M 60 383.481 C 60 386.413, 59.121 386.156, 80.500 389.492 C 101.266 392.733, 101 392.661, 101 395.019 C 101 396.929, 100.268 397, 80.500 397 L 60 397 60 399.500 L 60 402 80.500 402 L 101 402 101 404.310 C 101 406.533, 100.327 406.726, 83.250 409.398 C 61.683 412.773, 60.996 412.926, 61.015 414.358 C 61.067 418.227, 62.218 418.266, 82.116 415.071 C 92.777 413.359, 102.513 411.734, 103.750 411.460 C 105.924 410.979, 106 410.573, 106 399.481 C 106 393.166, 105.662 387.996, 105.250 387.991 C 104.838 387.986, 94.904 386.411, 83.175 384.491 C 71.446 382.571, 61.434 381, 60.925 381 C 60.416 381, 60 382.116, 60 383.481 M 111 399.440 L 111 414 115.027 414 L 119.055 414 118.777 399.750 L 118.500 385.500 114.750 385.190 L 111 384.879 111 399.440" stroke="none" fill="#FF6B6B" fill-rule="evenodd"/></svg>