<svg xmlns="http://www.w3.org/2000/svg" width="512" height="140" viewBox="0 0 512 140" version="1.1"><path d="" stroke="none" fill="#080404" fill-rule="evenodd"/><path d="M 245 2 C 245 3.763, 244.333 4, 239.364 4 L 233.728 4 234.364 8.640 C 234.714 11.191, 235 13.891, 235 14.640 C 235 15.584, 236.367 16, 239.469 16 C 243.292 16, 243.848 16.253, 243.322 17.750 C 241.799 22.079, 232.978 35.835, 227.702 42.107 L 221.903 49 216.702 49.002 L 211.500 49.004 205.717 73.252 C 202.537 86.588, 199.949 97.838, 199.967 98.250 C 200.008 99.175, 273.054 99.232, 312.750 98.337 L 342 97.678 342 93.839 L 342 90 324 90 C 308.667 90, 306 89.778, 306 88.500 C 306 87.221, 303.278 87, 287.500 87 C 275.833 87, 269 86.631, 269 86 C 269 85.370, 275.706 85, 287.117 85 L 305.233 85 304.630 82.750 C 304.299 81.513, 304.021 80.162, 304.014 79.750 C 304.006 79.338, 294.973 79, 283.941 79 C 270.823 79, 264.096 78.654, 264.500 78 C 264.877 77.390, 272.510 77, 284.059 77 C 304.835 77, 303.858 77.325, 302.110 71 C 301.470 68.687, 300.869 68.463, 294.057 68 L 286.694 67.500 284.581 58.500 L 282.468 49.500 278.234 49.193 C 274.135 48.895, 274 48.775, 274 45.443 C 274 42.437, 273.683 42, 271.500 42 C 269.056 42, 269 41.833, 269 34.500 C 269 27.667, 268.822 27, 267 27 C 265.178 27, 265 27.667, 265 34.500 C 265 40.500, 264.700 42, 263.500 42 C 262.300 42, 262 40.500, 262 34.500 C 262 27.667, 261.822 27, 260 27 C 258.178 27, 258 27.667, 258 34.500 C 258 41.833, 257.944 42, 255.500 42 C 253.310 42, 253 42.433, 253 45.500 C 253 47.944, 252.548 49, 251.500 49 C 250.227 49, 250 46.500, 250 32.500 L 250 16 254.455 16 C 258.828 16, 258.920 15.932, 259.512 12.250 C 259.844 10.188, 260.323 7.488, 260.577 6.250 C 261.010 4.137, 260.708 4, 255.636 4 C 251.074 4, 250.152 3.689, 249.710 2 C 249.397 0.803, 248.346 0, 247.094 0 C 245.667 0, 245 0.637, 245 2 M 242.772 22.892 C 240.183 28.299, 233.625 38.009, 229.053 43.202 C 226.824 45.735, 225 48.075, 225 48.403 C 225 48.732, 227.013 49, 229.474 49 C 233.890 49, 234.013 48.907, 239.006 41.798 C 244.837 33.495, 245.220 32.376, 244.806 24.850 L 244.500 19.284 242.772 22.892 M 144 52.930 L 144 86 135.500 86 L 127 86 127 92.500 L 127 99 158.048 99 L 189.095 99 188.798 92.750 L 188.500 86.500 173.750 86.223 L 159 85.947 159 52.973 C 159 20.667, 158.960 20, 157 20 C 155.040 20, 155 20.667, 155 53 L 155 86 152.014 86 L 149.027 86 148.764 53.250 L 148.500 20.500 146.250 20.180 L 144 19.861 144 52.930 M 274.200 32.200 C 273.540 32.860, 273 34.644, 273 36.165 C 273 41.170, 279.638 42.414, 282.072 37.865 C 284.371 33.569, 277.661 28.739, 274.200 32.200 M 240.260 43.054 L 236.020 49 240.510 49 L 245 49 245 43 C 245 39.700, 244.887 37.024, 244.750 37.054 C 244.613 37.084, 242.592 39.784, 240.260 43.054 M 171 67.500 L 171 79 166.500 79 C 162.167 79, 162 79.111, 162 82 L 162 85 173.500 85 L 185 85 185 82 C 185 79.238, 184.722 79, 181.500 79 L 178 79 178 74 C 178 70.302, 177.623 69, 176.552 69 C 175.519 69, 174.999 70.503, 174.737 74.250 C 174.535 77.138, 174.287 74.213, 174.185 67.750 C 174.032 58.054, 173.738 56, 172.500 56 C 171.254 56, 171 57.944, 171 67.500 M 218 61 C 218 63.933, 218.111 64, 223 64 C 227.889 64, 228 63.933, 228 61 C 228 58.067, 227.889 58, 223 58 C 218.111 58, 218 58.067, 218 61 M 232 61 L 232 64 239 64 L 246 64 246 61 L 246 58 239 58 L 232 58 232 61 M 250 61 L 250 64 256.500 64 L 263 64 263 61 L 263 58 256.500 58 L 250 58 250 61 M 268 61 C 268 63.933, 268.111 64, 273 64 C 277.889 64, 278 63.933, 278 61 C 278 58.067, 277.889 58, 273 58 C 268.111 58, 268 58.067, 268 61 M 363.035 69.934 C 362.466 70.998, 362 72.573, 362 73.434 C 362 74.547, 361.021 75, 358.617 75 C 355.814 75, 355.152 75.423, 354.762 77.466 C 354.291 79.931, 354.292 79.931, 363.895 80.256 L 373.500 80.581 363.817 80.791 C 353.058 81.023, 353.963 80.356, 352 89.500 C 351.410 92.250, 350.665 95.361, 350.344 96.413 C 349.780 98.267, 350.379 98.305, 370.039 97.671 C 381.192 97.311, 390.492 96.841, 390.706 96.627 C 390.920 96.413, 390.478 93.822, 389.723 90.869 L 388.351 85.500 408.425 80.447 C 426.482 75.901, 428.532 75.172, 428.820 73.197 C 429.010 71.885, 428.607 70.997, 427.820 70.993 C 427.094 70.988, 417.770 72.633, 407.099 74.647 C 389.689 77.933, 387.581 78.148, 386.552 76.740 C 385.921 75.878, 384.103 75.021, 382.510 74.836 C 380.198 74.568, 379.447 73.846, 378.779 71.250 L 377.943 68 371.007 68 C 365.172 68, 363.906 68.307, 363.035 69.934 M 240 78 C 240 78.550, 241.575 79, 243.500 79 C 245.425 79, 247 78.550, 247 78 C 247 77.450, 245.425 77, 243.500 77 C 241.575 77, 240 77.450, 240 78 M 253 78 C 253 78.550, 254.602 79, 256.559 79 C 258.677 79, 259.868 78.595, 259.500 78 C 259.160 77.450, 257.559 77, 255.941 77 C 254.323 77, 253 77.450, 253 78 M 98.362 85.500 C 98.045 86.325, 96.972 87, 95.976 87 C 94.981 87, 94.017 87.449, 93.833 87.997 C 93.625 88.619, 89.405 88.218, 82.616 86.931 C 75.017 85.490, 71.416 85.184, 70.683 85.917 C 70.106 86.494, 69.828 87.134, 70.067 87.339 C 70.305 87.544, 75.542 88.948, 81.704 90.459 L 92.909 93.206 92.329 96.103 L 91.750 99 102.986 99 L 114.223 99 113.546 95.393 C 112.482 89.724, 111.177 87, 109.525 87 C 108.686 87, 108 86.325, 108 85.500 C 108 84.387, 106.830 84, 103.469 84 C 100.363 84, 98.756 84.472, 98.362 85.500 M 413 85.500 C 413 86.325, 412.149 87, 411.108 87 C 409.871 87, 408.990 87.950, 408.561 89.750 C 408.200 91.263, 407.671 93.287, 407.385 94.250 C 406.913 95.839, 407.837 96, 417.433 96 C 425.771 96, 428 95.708, 428 94.614 C 428 93.683, 431.606 92.334, 439 90.500 C 446.394 88.666, 450 87.317, 450 86.386 C 450 84.647, 450.468 84.624, 438.180 86.966 C 427.578 88.986, 424.901 88.689, 422.700 85.250 C 421.504 83.379, 413 83.598, 413 85.500 M 467.500 89.043 C 461.450 89.429, 456.387 89.803, 456.250 89.873 C 456.113 89.943, 456 90.900, 456 92 C 456 93.816, 456.665 94, 463.250 93.996 C 467.238 93.994, 476.238 93.699, 483.250 93.342 C 495.775 92.703, 496 92.650, 496 90.346 C 496 88.051, 495.812 88.004, 487.250 88.170 C 482.438 88.264, 473.550 88.657, 467.500 89.043 M 27 96.500 L 27 99 47 99 L 67 99 67 96.500 L 67 94 47 94 L 27 94 27 96.500 M 445 97.160 C 380.665 99.994, 376.133 100.060, 190.216 100.890 C 86.110 101.355, 0.687 101.980, 0.387 102.280 C -0.768 103.434, 8.551 124.592, 11.800 128.194 C 17.459 134.469, 9.594 133.783, 119 137.538 C 184.187 139.776, 202.356 139.993, 324.789 139.996 C 447.738 140, 468.143 139.672, 481.571 137.478 C 484.283 137.035, 484.844 136.336, 486.368 131.502 C 488.392 125.081, 492.955 120.121, 501 115.594 C 505.385 113.127, 507.034 111.447, 509.136 107.302 C 510.585 104.443, 512.119 102.418, 512.545 102.802 C 512.970 103.186, 513.022 102.676, 512.659 101.668 C 512.297 100.661, 512 98.523, 512 96.918 C 512 95.313, 511.663 94.062, 511.250 94.137 C 510.837 94.213, 481.025 95.573, 445 97.160" stroke="none" fill="#FF6B6B" fill-rule="evenodd"/></svg>