<svg data-v-423bf9ae="" xmlns="http://www.w3.org/2000/svg" viewBox="0 0 438 90" class="iconLeft"><!----><!----><!----><g data-v-423bf9ae="" id="a023ad06-c4e1-48c7-8d1e-370da30b7cb3" fill="#001f3f" transform="matrix(5.226480610464515,0,0,5.226480610464515,155.79137893517282,-7.16027611528591)"><path d="M4.21 9.04L4.21 9.04L2.69 9.04L2.69 12.52L4.19 12.52L4.19 12.52Q5.03 12.52 5.51 12.02L5.51 12.02L5.51 12.02Q6.00 11.51 6.00 10.80L6.00 10.80L6.00 10.80Q6.00 10.47 5.88 10.17L5.88 10.17L5.88 10.17Q5.77 9.86 5.55 9.60L5.55 9.60L5.55 9.60Q5.34 9.35 4.99 9.19L4.99 9.19L4.99 9.19Q4.64 9.04 4.21 9.04ZM5.22 8.52L5.22 8.52L5.22 8.58L5.22 8.58Q5.72 8.61 6.14 8.79L6.14 8.79L6.14 8.79Q6.55 8.98 6.81 9.27L6.81 9.27L6.81 9.27Q7.06 9.55 7.20 9.89L7.20 9.89L7.20 9.89Q7.33 10.23 7.33 10.58L7.33 10.58L7.33 10.58Q7.33 10.98 7.22 11.34L7.22 11.34L7.22 11.34Q7.11 11.70 6.84 12.04L6.84 12.04L6.84 12.04Q6.58 12.39 6.17 12.63L6.17 12.63L6.17 12.63Q5.76 12.87 5.13 13.02L5.13 13.02L5.13 13.02Q4.49 13.17 3.69 13.17L3.69 13.17L0.16 13.17L0.23 12.67L1.38 12.35L1.38 5.62L0.21 5.42L0.27 4.89L0.27 4.89Q2.41 4.58 3.64 4.58L3.64 4.58L3.64 4.58Q4.40 4.58 4.99 4.74L4.99 4.74L4.99 4.74Q5.58 4.91 5.93 5.19L5.93 5.19L5.93 5.19Q6.28 5.47 6.46 5.82L6.46 5.82L6.46 5.82Q6.63 6.17 6.63 6.57L6.63 6.57L6.63 6.57Q6.63 6.85 6.56 7.12L6.56 7.12L6.56 7.12Q6.48 7.39 6.33 7.66L6.33 7.66L6.33 7.66Q6.17 7.93 5.89 8.16L5.89 8.16L5.89 8.16Q5.61 8.38 5.22 8.52ZM2.69 5.21L2.69 5.21L2.69 8.47L4.45 8.47L4.45 8.47Q5.35 8.09 5.34 6.95L5.34 6.95L5.34 6.95Q5.34 6.69 5.28 6.44L5.28 6.44L5.28 6.44Q5.22 6.20 5.07 5.96L5.07 5.96L5.07 5.96Q4.92 5.72 4.69 5.55L4.69 5.55L4.69 5.55Q4.46 5.38 4.08 5.27L4.08 5.27L4.08 5.27Q3.71 5.17 3.23 5.17L3.23 5.17L3.23 5.17Q2.93 5.16 2.69 5.21ZM11.31 11.89L11.31 10.25L11.31 10.25Q10.25 10.45 9.80 10.82L9.80 10.82L9.80 10.82Q9.35 11.18 9.35 11.70L9.35 11.70L9.35 11.70Q9.35 12.00 9.56 12.25L9.56 12.25L9.56 12.25Q9.77 12.50 10.12 12.50L10.12 12.50L10.12 12.50Q10.45 12.50 10.78 12.30L10.78 12.30L10.78 12.30Q11.11 12.11 11.31 11.89L11.31 11.89ZM12.50 13.30L12.50 13.30L12.50 13.30Q11.96 13.30 11.70 13.02L11.70 13.02L11.70 13.02Q11.44 12.74 11.44 12.38L11.44 12.38L11.44 12.28L11.36 12.28L11.36 12.28Q11.28 12.43 11.15 12.60L11.15 12.60L11.15 12.60Q11.01 12.76 10.79 12.94L10.79 12.94L10.79 12.94Q10.57 13.12 10.23 13.23L10.23 13.23L10.23 13.23Q9.89 13.34 9.50 13.34L9.50 13.34L9.50 13.34Q8.93 13.34 8.54 12.98L8.54 12.98L8.54 12.98Q8.16 12.63 8.16 12.02L8.16 12.02L8.16 12.02Q8.16 11.63 8.34 11.28L8.34 11.28L8.34 11.28Q8.52 10.92 8.89 10.62L8.89 10.62L8.89 10.62Q9.26 10.32 9.88 10.12L9.88 10.12L9.88 10.12Q10.50 9.91 11.31 9.86L11.31 9.86L11.31 9.48L11.31 9.48Q11.31 9.11 11.25 8.80L11.25 8.80L11.25 8.80Q11.20 8.50 11.06 8.23L11.06 8.23L11.06 8.23Q10.93 7.96 10.69 7.82L10.69 7.82L10.69 7.82Q10.45 7.68 10.10 7.68L10.10 7.68L10.10 7.68Q9.88 7.68 9.75 7.76L9.75 7.76L9.75 7.76Q9.61 7.84 9.54 8.03L9.54 8.03L9.54 8.03Q9.47 8.21 9.43 8.40L9.43 8.40L9.43 8.40Q9.40 8.60 9.37 8.91L9.37 8.91L9.37 8.91Q9.35 9.06 9.34 9.13L9.34 9.13L9.34 9.13Q9.19 9.13 9.10 9.12L9.10 9.12L9.10 9.12Q9.00 9.11 8.85 9.07L8.85 9.07L8.85 9.07Q8.71 9.04 8.62 8.97L8.62 8.97L8.62 8.97Q8.52 8.89 8.46 8.75L8.46 8.75L8.46 8.75Q8.39 8.61 8.39 8.42L8.39 8.42L8.39 8.42Q8.39 8.07 8.78 7.73L8.78 7.73L8.78 7.73Q9.17 7.39 9.71 7.20L9.71 7.20L9.71 7.20Q10.25 7.01 10.73 7.01L10.73 7.01L10.73 7.01Q11.63 7.01 12.02 7.52L12.02 7.52L12.02 7.52Q12.42 8.03 12.42 9.12L12.42 9.12L12.42 11.61L12.42 11.61Q12.42 12.09 12.56 12.26L12.56 12.26L12.56 12.26Q12.71 12.44 13.18 12.52L13.18 12.52L13.51 12.58L13.44 13.16L13.44 13.16Q13.33 13.17 13.16 13.21L13.16 13.21L13.16 13.21Q12.99 13.25 12.83 13.28L12.83 13.28L12.83 13.28Q12.68 13.30 12.50 13.30ZM15.50 5.74L15.50 5.74L15.86 5.74L15.86 7.23L17.79 7.23L17.73 7.83L15.85 7.83L15.83 10.94L15.83 10.99L15.83 10.99Q15.83 11.74 16.06 12.04L16.06 12.04L16.06 12.04Q16.30 12.33 16.83 12.33L16.83 12.33L16.83 12.33Q17.06 12.33 17.30 12.24L17.30 12.24L17.30 12.24Q17.55 12.14 17.68 12.05L17.68 12.05L17.81 11.96L17.96 12.33L17.96 12.33Q17.64 12.79 17.16 13.06L17.16 13.06L17.16 13.06Q16.68 13.33 16.11 13.33L16.11 13.33L16.11 13.33Q15.78 13.33 15.52 13.24L15.52 13.24L15.52 13.24Q15.27 13.15 15.07 12.94L15.07 12.94L15.07 12.94Q14.87 12.73 14.76 12.34L14.76 12.34L14.76 12.34Q14.66 11.96 14.66 11.40L14.66 11.40L14.66 11.19L14.68 7.82L13.80 7.82L13.80 7.45L13.80 7.45Q14.66 6.77 15.50 5.74ZM19.83 5.74L19.83 5.74L20.19 5.74L20.19 7.23L22.12 7.23L22.07 7.83L20.19 7.83L20.16 10.94L20.16 10.99L20.16 10.99Q20.16 11.74 20.40 12.04L20.40 12.04L20.40 12.04Q20.63 12.33 21.16 12.33L21.16 12.33L21.16 12.33Q21.39 12.33 21.64 12.24L21.64 12.24L21.64 12.24Q21.88 12.14 22.02 12.05L22.02 12.05L22.15 11.96L22.29 12.33L22.29 12.33Q21.97 12.79 21.49 13.06L21.49 13.06L21.49 13.06Q21.01 13.33 20.45 13.33L20.45 13.33L20.45 13.33Q20.11 13.33 19.86 13.24L19.86 13.24L19.86 13.24Q19.61 13.15 19.40 12.94L19.40 12.94L19.40 12.94Q19.20 12.73 19.10 12.34L19.10 12.34L19.10 12.34Q18.99 11.96 18.99 11.40L18.99 11.40L18.99 11.19L19.01 7.82L18.14 7.82L18.14 7.45L18.14 7.45Q19.00 6.77 19.83 5.74ZM24.78 4.66L24.78 12.38L25.87 12.62L25.79 13.17L22.52 13.17L22.59 12.63L23.64 12.38L23.64 5.53L22.56 5.17L22.64 4.65L24.61 4.49L24.78 4.66ZM31.04 10.09L31.04 10.09L27.73 10.12L27.73 10.12Q27.75 10.55 27.87 10.95L27.87 10.95L27.87 10.95Q28 11.35 28.22 11.70L28.22 11.70L28.22 11.70Q28.44 12.05 28.81 12.26L28.81 12.26L28.81 12.26Q29.18 12.48 29.63 12.48L29.63 12.48L29.67 12.48L29.67 12.48Q29.97 12.48 30.13 12.46L30.13 12.46L30.13 12.46Q30.30 12.45 30.58 12.36L30.58 12.36L30.58 12.36Q30.86 12.27 31.19 12.10L31.19 12.10L31.34 12.46L31.34 12.46Q30.93 12.89 30.34 13.14L30.34 13.14L30.34 13.14Q29.75 13.38 29.09 13.38L29.09 13.38L29.09 13.38Q28.59 13.38 28.14 13.17L28.14 13.17L28.14 13.17Q27.69 12.97 27.32 12.59L27.32 12.59L27.32 12.59Q26.95 12.22 26.73 11.61L26.73 11.61L26.73 11.61Q26.51 11.00 26.51 10.25L26.51 10.25L26.51 10.25Q26.51 9.50 26.76 8.88L26.76 8.88L26.76 8.88Q27.02 8.26 27.42 7.87L27.42 7.87L27.42 7.87Q27.83 7.47 28.32 7.25L28.32 7.25L28.32 7.25Q28.81 7.03 29.32 7.03L29.32 7.03L29.32 7.03Q30.11 7.03 30.63 7.59L30.63 7.59L30.63 7.59Q31.15 8.16 31.15 9.19L31.15 9.19L31.15 9.19Q31.15 9.59 31.04 10.09ZM27.74 9.59L27.74 9.59L29.89 9.45L29.89 9.45Q29.93 9.30 29.93 8.98L29.93 8.98L29.93 8.98Q29.93 7.70 28.98 7.70L28.98 7.70L28.98 7.70Q28.53 7.70 28.16 8.18L28.16 8.18L28.16 8.18Q27.79 8.66 27.74 9.59ZM34.97 9.15L34.97 9.15L34.91 8.86L34.91 8.86Q34.67 7.59 33.89 7.59L33.89 7.59L33.89 7.59Q33.54 7.59 33.34 7.83L33.34 7.83L33.34 7.83Q33.13 8.07 33.13 8.41L33.13 8.41L33.13 8.41Q33.13 8.67 33.29 8.90L33.29 8.90L33.29 8.90Q33.46 9.13 33.72 9.30L33.72 9.30L33.72 9.30Q33.99 9.48 34.31 9.66L34.31 9.66L34.31 9.66Q34.62 9.83 34.95 10.03L34.95 10.03L34.95 10.03Q35.27 10.23 35.53 10.45L35.53 10.45L35.53 10.45Q35.79 10.67 35.96 10.99L35.96 10.99L35.96 10.99Q36.13 11.30 36.13 11.67L36.13 11.67L36.13 11.67Q36.13 12.41 35.49 12.91L35.49 12.91L35.49 12.91Q34.84 13.41 34.02 13.41L34.02 13.41L34.02 13.41Q33.14 13.41 32.59 13.05L32.59 13.05L32.59 13.05Q32.04 12.69 32.04 12.21L32.04 12.21L32.04 12.21Q32.04 11.85 32.29 11.60L32.29 11.60L32.29 11.60Q32.53 11.35 32.94 11.31L32.94 11.31L32.94 11.31Q33.15 12.02 33.49 12.38L33.49 12.38L33.49 12.38Q33.83 12.74 34.23 12.74L34.23 12.74L34.23 12.74Q34.63 12.74 34.88 12.56L34.88 12.56L34.88 12.56Q35.13 12.39 35.13 12.04L35.13 12.04L35.13 12.04Q35.13 11.83 34.97 11.63L34.97 11.63L34.97 11.63Q34.81 11.43 34.55 11.27L34.55 11.27L34.55 11.27Q34.29 11.10 33.98 10.94L33.98 10.94L33.98 10.94Q33.67 10.77 33.35 10.57L33.35 10.57L33.35 10.57Q33.04 10.37 32.78 10.15L32.78 10.15L32.78 10.15Q32.53 9.93 32.36 9.60L32.36 9.60L32.36 9.60Q32.20 9.28 32.20 8.91L32.20 8.91L32.20 8.91Q32.20 8.67 32.28 8.41L32.28 8.41L32.28 8.41Q32.35 8.15 32.52 7.90L32.52 7.90L32.52 7.90Q32.69 7.64 32.93 7.45L32.93 7.45L32.93 7.45Q33.16 7.25 33.50 7.13L33.50 7.13L33.50 7.13Q33.84 7.01 34.24 7.01L34.24 7.01L34.24 7.01Q34.95 7.01 35.43 7.31L35.43 7.31L35.43 7.31Q35.92 7.61 35.92 8.16L35.92 8.16L35.92 8.16Q35.92 8.59 35.66 8.85L35.66 8.85L35.66 8.85Q35.41 9.12 34.97 9.15ZM42.56 9.07L42.56 9.07L42.56 12.39L43.55 12.63L43.48 13.17L40.41 13.17L40.48 12.67L41.41 12.39L41.43 9.26L41.43 9.21L41.43 9.21Q41.43 8.86 41.32 8.60L41.32 8.60L41.32 8.60Q41.21 8.35 41.04 8.21L41.04 8.21L41.04 8.21Q40.86 8.07 40.66 8.01L40.66 8.01L40.66 8.01Q40.47 7.94 40.25 7.94L40.25 7.94L40.25 7.94Q39.53 7.94 38.93 8.56L38.93 8.56L38.93 12.38L39.93 12.62L39.85 13.17L36.67 13.17L36.74 12.63L37.80 12.38L37.80 5.53L36.70 5.17L36.78 4.65L38.76 4.49L38.93 4.66L38.93 7.36L38.81 8.08L38.90 8.08L38.90 8.08Q39.85 7.01 40.90 7.01L40.90 7.01L40.90 7.01Q41.28 7.01 41.57 7.11L41.57 7.11L41.57 7.11Q41.85 7.20 42.09 7.42L42.09 7.42L42.09 7.42Q42.32 7.64 42.44 8.06L42.44 8.06L42.44 8.06Q42.56 8.47 42.56 9.07ZM44.06 13.17L44.15 12.63L45.19 12.38L45.19 8.18L44.15 7.80L44.24 7.28L46.16 7.12L46.33 7.29L46.33 12.38L47.42 12.62L47.35 13.17L44.06 13.17ZM45.69 4.24L45.69 4.24L45.69 4.24Q46.03 4.24 46.28 4.47L46.28 4.47L46.28 4.47Q46.53 4.70 46.53 5.02L46.53 5.02L46.53 5.02Q46.53 5.36 46.28 5.61L46.28 5.61L46.28 5.61Q46.03 5.86 45.69 5.86L45.69 5.86L45.69 5.86Q45.36 5.86 45.12 5.61L45.12 5.61L45.12 5.61Q44.88 5.36 44.88 5.01L44.88 5.01L44.88 5.01Q44.88 4.68 45.12 4.46L45.12 4.46L45.12 4.46Q45.36 4.24 45.69 4.24ZM50.91 13.31L50.91 13.31L50.91 13.31Q50.61 13.31 50.27 13.24L50.27 13.24L50.24 12.41L50.24 12.41Q50.48 12.51 50.67 12.54L50.67 12.54L50.67 12.54Q50.87 12.56 51.28 12.56L51.28 12.56L51.28 12.56Q51.97 12.56 52.34 11.98L52.34 11.98L52.34 11.98Q52.71 11.39 52.71 10.40L52.71 10.40L52.71 10.40Q52.71 7.92 51.40 7.92L51.40 7.92L51.40 7.92Q50.68 7.92 50.00 8.63L50.00 8.63L50.00 14.93L51.06 15.17L50.98 15.72L47.80 15.72L47.84 15.18L48.88 14.92L48.88 8.23L47.83 7.92L47.91 7.39L49.90 7.14L50.05 7.27L49.94 8.16L50.00 8.16L50.00 8.16Q50.20 7.88 50.45 7.64L50.45 7.64L50.45 7.64Q50.69 7.41 51.08 7.22L51.08 7.22L51.08 7.22Q51.47 7.03 51.88 7.03L51.88 7.03L51.88 7.03Q52.34 7.03 52.71 7.21L52.71 7.21L52.71 7.21Q53.07 7.38 53.36 7.72L53.36 7.72L53.36 7.72Q53.64 8.07 53.80 8.64L53.80 8.64L53.80 8.64Q53.96 9.22 53.96 9.98L53.96 9.98L53.96 9.98Q53.96 11.44 53.10 12.37L53.10 12.37L53.10 12.37Q52.24 13.31 50.91 13.31Z"></path></g><!----><g data-v-423bf9ae="" id="0e6d2719-6124-452e-8780-b0232cec3606" transform="matrix(11.73675750941335,0,0,11.73675750941335,-6.0042816903473835,-29.05431015415067)" stroke="none" fill="#001f3f"><path d="M.53 7.387l2.13 2.38a1.264 1.264 0 0 0 .941.421h6.754a1.264 1.264 0 0 0 1.154-.746l.662-1.475H7.983l-2.735-.58zm2.398.768h1.093a.095.095 0 0 1 0 .19H2.928a.095.095 0 0 1 0-.19zM2.193 6.484L.796 5.23a.095.095 0 0 0-.127.142l1.34 1.202a.855.855 0 0 0-.385.622h1.698a.855.855 0 0 0-1.13-.712z"></path><path d="M7.308 5.194h-.893V2.606a.096.096 0 0 0-.191 0v2.588H5.33V3.442a.095.095 0 0 0-.19 0v1.752h-.897v2.002h1.024l2.735.58h.392V5.194H7.5V3.442a.096.096 0 0 0-.19 0z"></path></g><!----></svg>